HIERARCHY
ROOT hip
{
	OFFSET 0.000000 0.000000 0.000000 
	CHANNELS 6 Xposition Yposition Zposition Xrotation Zrotation Yrotation
	JOINT abdomen
	{
		OFFSET 0.000000 3.402643 0.000000 
		CHANNELS 3 Xrotation Zrotation Yrotation
		JOINT chest
		{
			OFFSET 0.000000 8.438565 -0.680529 
			CHANNELS 3 Xrotation Zrotation Yrotation
			JOINT neck
			{
				OFFSET 0.000000 10.207942 -0.272212 
				CHANNELS 3 Xrotation Zrotation Yrotation
				JOINT head
				{
					OFFSET 0.000000 3.130431 0.000000 
					CHANNELS 3 Xrotation Zrotation Yrotation
					End Site
					{
						OFFSET 0.000000 3.130435 0.000000 
					}
				}
			}
			JOINT lCollar
			{
				OFFSET 3.470700 6.669187 -0.816635 
				CHANNELS 3 Yrotation Zrotation Xrotation
				JOINT lShldr
				{
					OFFSET 3.198488 0.000000 0.000000 
					CHANNELS 3 Zrotation Yrotation Xrotation
					JOINT lForeArm
					{
						OFFSET 10.139888 0.000000 0.000000 
						CHANNELS 3 Yrotation Zrotation Xrotation
						JOINT lHand
						{
							OFFSET 8.370511 0.000000 0.000000 
							CHANNELS 3 Zrotation Yrotation Xrotation
							End Site
							{
								OFFSET 4.083176 0.000000 0.000000 
							}
						}
					}
				}
			}
			JOINT rCollar
			{
				OFFSET -3.470700 6.669187 -0.816635 
				CHANNELS 3 Yrotation Zrotation Xrotation
				JOINT rShldr
				{
					OFFSET -3.198488 0.000000 0.000000 
					CHANNELS 3 Zrotation Yrotation Xrotation
					JOINT rForeArm
					{
						OFFSET -10.139888 0.000000 0.000000 
						CHANNELS 3 Yrotation Zrotation Xrotation
						JOINT rHand
						{
							OFFSET -8.370511 0.000000 0.000000 
							CHANNELS 3 Zrotation Yrotation Xrotation
							End Site
							{
								OFFSET -4.083176 0.000000 0.000000 
							}
						}
					}
				}
			}
		}
	}
	JOINT lThigh
	{
		OFFSET 5.308129 -1.633274 1.361059 
		CHANNELS 3 Xrotation Zrotation Yrotation
		JOINT lShin
		{
			OFFSET -2.041588 -20.007561 0.000000 
			CHANNELS 3 Xrotation Zrotation Yrotation
			JOINT lFoot
			{
				OFFSET 0.000000 -19.190928 -1.224953 
				CHANNELS 3 Xrotation Yrotation Zrotation
				End Site
				{
					OFFSET 0.000000 -2.449906 4.627600 
				}
			}
		}
	}
	JOINT rThigh
	{
		OFFSET -5.308129 -1.633274 1.361059 
		CHANNELS 3 Xrotation Zrotation Yrotation
		JOINT rShin
		{
			OFFSET 2.041588 -20.007561 0.000000 
			CHANNELS 3 Xrotation Zrotation Yrotation
			JOINT rFoot
			{
				OFFSET 0.000000 -19.190928 -1.224953 
				CHANNELS 3 Xrotation Yrotation Zrotation
				End Site
				{
					OFFSET 0.000000 -2.449906 4.627600 
				}
			}
		}
	}
}
MOTION
Frames: 13
Frame Time: 0.033333
-1.023579 50.737015 -0.880968 0.156982 -0.078122 -0.537122 0.000000 0.000000 0.000000 -5.205243 0.087890 -0.107422 4.648740 0.253906 0.068402 5.946533 -0.195311 0.214843 -0.634284 9.102073 -4.154374 -4.664722 0.870659 -11.343573 -0.004324 -5.007817 12.811326 0.082540 -4.367988 -3.385527 0.493219 -8.602584 -4.156682 3.012596 -10.037430 -4.067873 0.000418 1.487447 13.656529 -0.841959 4.420544 -3.453222 7.025875 9.516371 4.892781 -2.383447 -3.015432 1.819673 -3.816603 0.290679 -7.081329 5.164788 -10.145087 -5.777396 -0.692724 3.961245 -5.998052 -2.918628 -0.141640 6.965016 
-1.016154 50.732487 -0.885973 0.176311 -0.058591 -0.517588 0.000000 0.000000 0.000000 -5.214995 0.068359 -0.126953 4.638748 0.224609 0.019569 5.868476 -0.185546 0.205077 -0.683582 9.076462 -4.163953 -4.644128 0.950313 -11.143362 -0.003231 -5.003523 12.605369 0.061252 -4.339895 -3.384136 0.488153 -8.651367 -4.167799 3.148262 -10.043745 -4.178946 -0.001461 1.437696 13.812741 -0.893207 4.456590 -3.457408 6.919281 9.506590 4.850245 -2.246338 -3.024718 1.781869 -3.878183 0.259585 -7.085030 5.104862 -10.171666 -5.789262 -0.683681 3.963281 -5.998065 -2.883656 -0.133869 7.020079 
-1.009992 50.738277 -0.904651 0.215443 -0.058591 -0.585947 0.000000 0.000000 0.000000 -5.253976 0.058594 -0.068359 4.668088 0.234375 0.029337 5.849070 -0.175780 0.175780 -0.648570 9.221492 -4.194469 -4.878039 0.972089 -11.172101 -0.006144 -5.009990 12.899714 0.130846 -4.355354 -3.389265 0.628021 -8.554377 -4.195162 3.151686 -10.199613 -4.195226 -0.004667 1.406913 13.841795 -0.373231 4.458380 -3.416994 6.941392 9.481123 4.787476 -2.354635 -2.976890 1.796784 -3.838779 0.280559 -7.107169 5.028255 -10.174625 -5.758076 -0.700867 3.937104 -6.095829 -2.819360 -0.108828 6.891834 
-1.010367 50.750595 -0.925585 0.098402 -0.068355 -0.625011 0.000000 0.000000 0.000000 -5.117188 0.087891 0.000000 4.687380 0.175781 -0.039062 5.976462 -0.195312 0.029297 -0.694975 9.133729 -4.064449 -4.906044 0.931450 -11.355865 -0.001863 -5.009994 12.948356 0.125636 -4.267617 -3.388721 0.527153 -8.681981 -4.089068 3.370267 -10.091262 -4.326852 -0.006857 1.397416 14.027287 -0.394539 4.310342 -3.427920 7.029135 9.490141 4.898847 -2.401444 -3.062561 2.105468 -3.707160 0.270072 -7.024190 5.114969 -10.103559 -5.761963 -0.730519 3.901343 -6.038620 -2.785347 -0.173905 6.833044 
-1.004202 50.740036 -0.936917 0.068917 -0.048825 -0.654305 0.000000 0.000000 0.000000 -5.068349 0.058594 0.009776 4.667934 0.205078 -0.009766 5.888156 -0.302734 0.097655 -0.600367 9.312251 -4.027571 -5.193037 0.803990 -11.472004 -0.006740 -5.002670 13.027013 0.200498 -4.194721 -3.404325 0.522081 -8.719814 -4.039335 3.449447 -10.090119 -4.446569 -0.002716 1.359518 14.251835 -0.300705 4.394213 -3.410884 7.057219 9.459991 4.846009 -2.373151 -3.014817 2.004599 -3.770466 0.294182 -7.047174 5.132854 -10.190157 -5.821834 -0.721403 3.979234 -5.805360 -2.779734 -0.114297 6.793927 
-0.997782 50.738899 -0.956905 0.128551 -0.146476 -0.625023 0.000000 0.000000 0.000000 -5.068424 0.126953 -0.029297 4.502108 0.302734 0.029348 6.268453 -0.351561 0.175778 -0.650474 9.296153 -4.027514 -5.115215 0.805638 -11.518700 -0.004432 -5.009992 12.919170 0.090003 -4.328416 -3.386380 0.441287 -8.459812 -4.046195 3.303962 -9.980783 -4.482846 -0.002596 1.387946 13.949186 -0.540624 4.467961 -3.429978 6.980735 9.559309 4.877269 -2.382697 -2.995039 1.994194 -3.734451 0.284477 -7.082163 5.087079 -10.106111 -5.741674 -0.768759 3.964957 -5.935505 -2.733310 -0.132286 7.017389 
-0.989979 50.744576 -0.980686 0.088973 -0.097650 -0.634781 0.000000 0.000000 0.000000 -5.048868 0.058594 -0.039062 4.746478 0.322265 0.068413 5.887503 -0.253904 0.263669 -0.664797 9.277121 -4.006652 -5.207733 0.711250 -11.582230 -0.006740 -5.002670 13.027013 0.062494 -4.183331 -3.394377 0.478389 -8.549968 -4.018624 3.515248 -9.923406 -4.554878 -0.001213 1.338204 13.988014 -0.408252 4.387814 -3.419108 6.941081 9.480680 4.817176 -2.302823 -2.993076 2.057429 -3.731717 0.289886 -7.058714 5.096026 -10.154170 -5.786971 -0.838184 3.968641 -5.891822 -2.655540 -0.129075 6.669406 
-0.983938 50.757656 -1.002869 0.059508 -0.087886 -0.595717 0.000000 0.000000 0.000000 -5.068359 0.000000 -0.068359 5.146764 0.410156 0.039131 5.242692 -0.283199 0.292965 -0.803811 9.365294 -4.017688 -5.422678 0.631106 -11.650220 -0.001497 -5.000477 12.977541 0.284974 -4.131008 -3.410703 0.382118 -8.602521 -4.047666 4.019285 -9.615963 -5.031647 -0.004586 1.127398 14.270142 -0.311918 3.914168 -3.420912 6.900083 9.449668 4.793132 -2.314723 -3.004418 2.146934 -3.658241 0.271976 -7.043459 5.075374 -10.152274 -5.796409 -0.788606 3.975941 -6.112907 -2.647857 -0.120170 6.672818 
-0.976129 50.753117 -1.036969 0.127444 -0.048826 -0.576180 0.000000 0.000000 0.000000 -5.175681 -0.048828 -0.117196 5.664196 0.097656 0.078142 4.590622 0.351562 0.127011 -0.907822 9.218257 -4.105824 -5.994366 0.445722 -12.698989 -0.007125 -5.011638 13.458380 0.479530 -3.777016 -3.423245 -0.123211 -9.106689 -4.172658 5.694901 -8.431863 -7.186400 -0.000276 0.374292 15.166323 -0.543035 2.687127 -3.449217 6.834104 9.413121 4.707984 -2.364794 -2.948074 1.962375 -3.640651 0.279874 -7.039859 4.959420 -10.202603 -5.809316 -0.693152 3.991852 -5.969445 -2.649120 -0.154146 6.785494 
-0.962419 50.746346 -1.082927 0.088220 -0.029295 -0.644536 0.000000 0.000000 0.000000 -5.243742 -0.117187 -0.195332 6.464844 -0.068359 0.000000 4.180041 0.517578 0.039149 -0.643109 9.426726 -4.197643 -7.951461 -0.327179 -15.431087 -0.003428 -5.004889 13.173769 1.467267 -3.404291 -3.490583 -0.471988 -9.150371 -4.252902 7.825871 -6.822733 -11.170606 -0.006496 -0.767427 14.259121 -1.298755 1.731091 -3.495145 6.830386 9.379734 4.724070 -2.365273 -2.986731 2.198281 -3.578798 0.229665 -6.995935 4.911458 -10.244385 -5.812802 -0.641639 4.015355 -5.868706 -2.641673 -0.145930 6.904527 
-0.956503 50.768356 -1.143268 0.077686 0.029294 -0.859375 0.000000 0.000000 0.000000 -5.360538 -0.185545 -0.244171 7.117685 -0.449216 0.185541 5.235284 0.888671 0.058738 -0.597617 9.533587 -4.306843 -11.144870 -1.107855 -19.720596 -0.001996 -4.518494 12.342027 2.861713 -3.132682 -3.563812 -0.307115 -8.878978 -4.328559 10.626940 -5.370468 -17.566935 -0.000460 -2.148864 10.993887 -3.553700 2.256272 -3.600204 6.855362 9.257697 4.628815 -2.420531 -2.925524 2.257764 -3.522317 0.277130 -7.006810 4.762682 -10.298238 -5.756498 -0.593841 3.927935 -5.755880 -2.555327 -0.156303 6.919503 
-0.948951 50.776661 -1.236094 0.068359 0.000000 -1.210938 0.000000 0.000000 0.000000 -5.429583 -0.029297 -0.205083 7.694531 -0.937441 0.644605 7.533000 0.869133 0.244261 -0.728071 8.986498 -4.359793 -14.609763 -1.986177 -24.058710 -0.092057 -2.900066 9.836634 5.778249 -3.700183 -3.761967 0.168010 -7.955407 -4.366820 13.263471 -4.088750 -24.841818 0.086871 -3.046458 6.415345 -6.444903 4.656063 -3.843148 6.844629 9.277153 4.621406 -2.439274 -2.934531 2.532853 -3.459812 0.251607 -7.015997 4.519830 -10.271118 -5.688726 -0.537123 3.943235 -5.557380 -2.390432 -0.107348 6.683064 
-0.941670 50.775650 -1.363350 0.200235 -0.165943 -1.699240 0.000000 0.000000 0.000000 -5.508546 0.205077 -0.205077 8.061357 -0.976450 0.869181 10.795603 -0.498020 0.595681 -1.134840 7.941278 -4.395977 -18.367298 -2.502189 -28.435825 -0.228976 -1.740113 7.005126 9.433159 -6.223759 -4.147475 1.380824 -5.492459 -4.392489 14.752831 -3.562150 -32.258427 0.272583 -3.388906 2.954436 -6.841511 7.129344 -3.982003 6.696701 9.422071 4.707386 -2.500333 -2.976136 2.978324 -3.304940 0.261211 -6.966562 4.078526 -10.129499 -5.486880 -0.437766 3.907466 -5.246210 -2.250966 -0.096732 6.747447 
